<svg width="1100" height="280" viewBox="0 0 1100 280" fill="none" xmlns="http://www.w3.org/2000/svg" role="img" aria-labelledby="title desc">
  <title id="title">mnemo</title>
  <desc id="desc">Persistent memory for AI coding agents  paper ink banner</desc>

  <rect width="1100" height="280" fill="#f0f4f8"/>
  <rect x="0.5" y="0.5" width="1099" height="279" stroke="#0f1f38" stroke-width="1"/>
  <line x1="48" y1="1" x2="48" y2="279" stroke="#c4d0de" stroke-width="1"/>
  <line x1="1052" y1="1" x2="1052" y2="279" stroke="#c4d0de" stroke-width="1"/>
  <line x1="1" y1="40" x2="1099" y2="40" stroke="#c4d0de" stroke-width="1"/>
  <line x1="1" y1="240" x2="1099" y2="240" stroke="#c4d0de" stroke-width="1"/>

  <text x="64" y="26" font-family="'IBM Plex Mono', ui-monospace, Menlo, monospace" font-size="11" letter-spacing="0.18em" fill="#4a6080">MNEMO / LOCAL MEMORY LAYER</text>
  <text x="1036" y="26" text-anchor="end" font-family="'IBM Plex Mono', ui-monospace, Menlo, monospace" font-size="11" letter-spacing="0.12em" fill="#8aa0b8">ALPHA</text>

  <!-- mark: observation graph -->
  <g transform="translate(120, 92)">
    <circle cx="48" cy="18" r="10" fill="#0f1f38"/>
    <circle cx="18" cy="78" r="10" fill="none" stroke="#0f1f38" stroke-width="2.5"/>
    <circle cx="78" cy="78" r="10" fill="none" stroke="#0f1f38" stroke-width="2.5"/>
    <circle cx="48" cy="68" r="7" fill="none" stroke="#0f1f38" stroke-width="2"/>
    <line x1="48" y1="28" x2="18" y2="68" stroke="#0f1f38" stroke-width="2"/>
    <line x1="48" y1="28" x2="78" y2="68" stroke="#0f1f38" stroke-width="2"/>
    <line x1="48" y1="28" x2="48" y2="61" stroke="#0f1f38" stroke-width="2"/>
  </g>

  <text x="250" y="130" font-family="Archivo, 'Helvetica Neue', Arial, sans-serif" font-size="72" font-weight="700" letter-spacing="-0.03em" fill="#0f1f38">mnemo</text>
  <text x="254" y="172" font-family="Archivo, 'Helvetica Neue', Arial, sans-serif" font-size="22" fill="#4a6080">Persistent memory for AI coding agents</text>

  <g font-family="'IBM Plex Mono', ui-monospace, Menlo, monospace" font-size="13" fill="#0f1f38">
    <rect x="254" y="196" width="118" height="28" fill="#e2eaf2" stroke="#0f1f38" stroke-width="1"/>
    <text x="266" y="215">mem_save</text>
    <rect x="380" y="196" width="132" height="28" fill="#e2eaf2" stroke="#0f1f38" stroke-width="1"/>
    <text x="392" y="215">mem_search</text>
    <rect x="520" y="196" width="140" height="28" fill="#e2eaf2" stroke="#0f1f38" stroke-width="1"/>
    <text x="532" y="215">mem_context</text>
    <rect x="668" y="196" width="92" height="28" fill="#0f1f38"/>
    <text x="680" y="215" fill="#f0f4f8">SQLite</text>
  </g>

  <text x="64" y="266" font-family="'IBM Plex Mono', ui-monospace, Menlo, monospace" font-size="11" letter-spacing="0.14em" fill="#4a6080">CLAUDE CODE · CODEX · CURSOR · OPENCODE · PI</text>
  <text x="1036" y="266" text-anchor="end" font-family="'IBM Plex Mono', ui-monospace, Menlo, monospace" font-size="11" letter-spacing="0.12em" fill="#8aa0b8">PAPER / INK</text>
</svg>
